<svg xmlns="http://www.w3.org/2000/svg" version="1.1" xmlns:xlink="http://www.w3.org/1999/xlink" xmlns:svgjs="http://svgjs.dev/svgjs" width="100%" height="100%" viewBox="0 0 1000 600"><rect width="1000" height="600" x="0" y="0" fill="#141414"/><g><rect width="333.3333333333333" height="333.3333333333333" rx="13.333333333333334" ry="13.333333333333334" y="77.77777014838344" fill="#cbcbcb" transform="matrix(2.2499999313354513,0,0,2.2499999313354517,0,-249.99999084472722)" x="55.55555725097656"/><path d="M185.47898888883492 205.38260116736453Q203.80230289589824 205.38260116736453 212.49702131752758 214.6569674837692Q221.19173973915693 223.9313338001738 221.19173973915693 240.83773073111982L221.19173973915693 240.83773073111982L221.19173973915693 319.44442579481324L197.74820266157855 319.44442579481324L197.74820266157855 242.70548505872907Q197.74820266157855 230.40406862516457 193.36864078994302 224.38217105166572Q188.95687625748664 218.36027347816687 179.45709131533607 218.36027347816687L179.45709131533607 218.36027347816687Q165.06250192841637 218.36027347816687 151.63399236612213 229.01935420986806L151.63399236612213 229.01935420986806L151.63399236612213 319.44442579481324L128.19045528854375 319.44442579481324L128.19045528854375 172.4392791476356L151.63399236612213 169.4444316912966L151.63399236612213 216.97555906287036Q159.04060435491752 211.62991736660936 167.86413341983024 208.50625926698692Q176.65545982392217 205.38260116736453 185.47898888883492 205.38260116736453L185.47898888883492 205.38260116736453ZM278.2226520528813 229.244772835614Q283.5360910883214 219.29415064197153 293.16468667375545 213.2400504076518Q302.79328225918937 207.21815283415296 316.2539944823045 207.21815283415296L316.2539944823045 207.21815283415296L316.2539944823045 224.38217105166572Q280.54124363198247 224.38217105166572 280.54124363198247 252.20527000087966L280.54124363198247 252.20527000087966L280.31582500623654 252.20527000087966L280.31582500623654 319.44442579481324L256.8722879286581 319.44442579481324L256.8722879286581 208.1520299979576L267.0805314088674 208.1520299979576L278.2226520528813 229.244772835614Z " fill="##240175" transform="matrix(2.2499999313354513,0,0,2.2499999313354517,0,-249.99999084472722)"/><path d="MNaN 244.44444105360233 " fill="##240175" transform="matrix(2.2499999313354513,0,0,2.2499999313354517,0,-249.99999084472722)"/></g></svg>